<svg xmlns="http://www.w3.org/2000/svg" xmlns:xlink="http://www.w3.org/1999/xlink" width="200" zoomAndPan="magnify" viewBox="0 0 150 60" height="80" preserveAspectRatio="xMidYMid meet" version="1.0"><defs><g/></defs><g fill="#c00a27" fill-opacity="1"><g transform="translate(22.115738, 29.293111)"><g><path d="M 0.40625 -1.78125 C 0.40625 -2.457031 0.460938 -3.078125 0.578125 -3.640625 C 0.703125 -4.210938 0.851562 -4.804688 1.03125 -5.421875 C 1.207031 -6.046875 1.390625 -6.765625 1.578125 -7.578125 C 1.765625 -8.398438 1.914062 -9.390625 2.03125 -10.546875 C 2.15625 -11.710938 2.21875 -13.128906 2.21875 -14.796875 C 2.21875 -16.179688 2.171875 -17.378906 2.078125 -18.390625 C 1.992188 -19.398438 1.882812 -20.265625 1.75 -20.984375 C 1.613281 -21.703125 1.46875 -22.328125 1.3125 -22.859375 C 1.15625 -23.390625 1.003906 -23.867188 0.859375 -24.296875 C 0.722656 -24.734375 0.613281 -25.164062 0.53125 -25.59375 C 0.445312 -26.019531 0.40625 -26.492188 0.40625 -27.015625 C 0.40625 -27.492188 0.519531 -27.859375 0.75 -28.109375 C 0.976562 -28.359375 1.265625 -28.53125 1.609375 -28.625 C 1.953125 -28.726562 2.289062 -28.78125 2.625 -28.78125 C 2.957031 -28.789062 3.226562 -28.796875 3.4375 -28.796875 L 14.8125 -28.796875 C 16.1875 -28.796875 17.40625 -28.519531 18.46875 -27.96875 C 19.53125 -27.414062 20.363281 -26.640625 20.96875 -25.640625 C 21.570312 -24.640625 21.875 -23.472656 21.875 -22.140625 C 21.875 -21.566406 21.796875 -20.976562 21.640625 -20.375 C 21.492188 -19.78125 21.242188 -19.203125 20.890625 -18.640625 C 20.535156 -18.085938 20.066406 -17.59375 19.484375 -17.15625 C 18.910156 -16.726562 18.195312 -16.40625 17.34375 -16.1875 C 17.007812 -16.09375 16.84375 -15.960938 16.84375 -15.796875 C 16.84375 -15.691406 16.972656 -15.578125 17.234375 -15.453125 C 17.503906 -15.335938 17.84375 -15.1875 18.25 -15 C 18.664062 -14.820312 19.109375 -14.570312 19.578125 -14.25 C 20.054688 -13.925781 20.503906 -13.503906 20.921875 -12.984375 C 21.335938 -12.460938 21.675781 -11.804688 21.9375 -11.015625 C 22.207031 -10.234375 22.34375 -9.273438 22.34375 -8.140625 C 22.34375 -7.441406 22.242188 -6.71875 22.046875 -5.96875 C 21.859375 -5.21875 21.550781 -4.488281 21.125 -3.78125 C 20.707031 -3.070312 20.148438 -2.429688 19.453125 -1.859375 C 18.765625 -1.285156 17.921875 -0.832031 16.921875 -0.5 C 15.921875 -0.164062 14.75 0 13.40625 0 L 3.125 0 C 2.90625 0 2.644531 0 2.34375 0 C 2.050781 -0.0078125 1.753906 -0.0625 1.453125 -0.15625 C 1.148438 -0.257812 0.898438 -0.4375 0.703125 -0.6875 C 0.503906 -0.9375 0.40625 -1.300781 0.40625 -1.78125 Z M 9.78125 -7.234375 C 9.78125 -6.660156 9.882812 -6.273438 10.09375 -6.078125 C 10.3125 -5.890625 10.609375 -5.796875 10.984375 -5.796875 C 11.628906 -5.796875 12.160156 -5.921875 12.578125 -6.171875 C 12.992188 -6.429688 13.316406 -6.753906 13.546875 -7.140625 C 13.785156 -7.523438 13.953125 -7.921875 14.046875 -8.328125 C 14.140625 -8.742188 14.1875 -9.113281 14.1875 -9.4375 C 14.1875 -9.757812 14.140625 -10.128906 14.046875 -10.546875 C 13.953125 -10.972656 13.785156 -11.378906 13.546875 -11.765625 C 13.316406 -12.148438 12.992188 -12.46875 12.578125 -12.71875 C 12.160156 -12.96875 11.628906 -13.09375 10.984375 -13.09375 C 10.609375 -13.09375 10.3125 -13 10.09375 -12.8125 C 9.882812 -12.632812 9.78125 -12.25 9.78125 -11.65625 C 9.78125 -11.519531 9.78125 -11.300781 9.78125 -11 C 9.789062 -10.707031 9.796875 -10.410156 9.796875 -10.109375 C 9.804688 -9.804688 9.8125 -9.582031 9.8125 -9.4375 C 9.8125 -9.300781 9.804688 -9.082031 9.796875 -8.78125 C 9.796875 -8.488281 9.789062 -8.191406 9.78125 -7.890625 C 9.78125 -7.597656 9.78125 -7.378906 9.78125 -7.234375 Z M 9.78125 -18.8125 C 9.78125 -18.40625 9.882812 -18.128906 10.09375 -17.984375 C 10.3125 -17.847656 10.609375 -17.78125 10.984375 -17.78125 C 11.628906 -17.78125 12.160156 -17.867188 12.578125 -18.046875 C 12.992188 -18.222656 13.316406 -18.453125 13.546875 -18.734375 C 13.785156 -19.015625 13.953125 -19.300781 14.046875 -19.59375 C 14.140625 -19.894531 14.1875 -20.164062 14.1875 -20.40625 C 14.1875 -20.625 14.140625 -20.882812 14.046875 -21.1875 C 13.953125 -21.488281 13.785156 -21.78125 13.546875 -22.0625 C 13.316406 -22.34375 12.992188 -22.570312 12.578125 -22.75 C 12.160156 -22.925781 11.628906 -23.015625 10.984375 -23.015625 C 10.609375 -23.015625 10.3125 -22.941406 10.09375 -22.796875 C 9.882812 -22.660156 9.78125 -22.390625 9.78125 -21.984375 Z M 9.78125 -18.8125 "/></g></g></g><g fill="#c00a27" fill-opacity="1"><g transform="translate(44.546889, 29.293111)"><g><path d="M 0.5 -10 C 0.5 -11.269531 0.710938 -12.515625 1.140625 -13.734375 C 1.578125 -14.960938 2.238281 -16.070312 3.125 -17.0625 C 4.007812 -18.050781 5.128906 -18.835938 6.484375 -19.421875 C 7.835938 -20.003906 9.441406 -20.296875 11.296875 -20.296875 C 12.328125 -20.296875 13.316406 -20.164062 14.265625 -19.90625 C 15.210938 -19.644531 16.054688 -19.25 16.796875 -18.71875 C 17.535156 -18.195312 18.117188 -17.539062 18.546875 -16.75 C 18.984375 -15.96875 19.203125 -15.050781 19.203125 -14 C 19.203125 -12.84375 19.023438 -11.835938 18.671875 -10.984375 C 18.316406 -10.128906 17.84375 -9.40625 17.25 -8.8125 C 16.65625 -8.226562 16 -7.742188 15.28125 -7.359375 C 14.5625 -6.984375 13.832031 -6.679688 13.09375 -6.453125 C 12.40625 -6.242188 11.796875 -6.144531 11.265625 -6.15625 C 10.742188 -6.175781 10.328125 -6.1875 10.015625 -6.1875 C 9.847656 -6.1875 9.71875 -6.164062 9.625 -6.125 C 9.539062 -6.09375 9.5 -6.019531 9.5 -5.90625 C 9.5 -5.6875 9.613281 -5.507812 9.84375 -5.375 C 10.082031 -5.25 10.363281 -5.15625 10.6875 -5.09375 C 11.019531 -5.03125 11.316406 -5 11.578125 -5 C 12.296875 -5 12.898438 -5.085938 13.390625 -5.265625 C 13.890625 -5.453125 14.328125 -5.65625 14.703125 -5.875 C 15.078125 -6.101562 15.4375 -6.304688 15.78125 -6.484375 C 16.125 -6.671875 16.503906 -6.765625 16.921875 -6.765625 C 17.367188 -6.765625 17.753906 -6.648438 18.078125 -6.421875 C 18.410156 -6.203125 18.679688 -5.921875 18.890625 -5.578125 C 19.097656 -5.242188 19.25 -4.894531 19.34375 -4.53125 C 19.445312 -4.175781 19.5 -3.851562 19.5 -3.5625 C 19.5 -2.957031 19.207031 -2.359375 18.625 -1.765625 C 18.050781 -1.171875 17.160156 -0.675781 15.953125 -0.28125 C 14.742188 0.101562 13.191406 0.296875 11.296875 0.296875 C 9.535156 0.296875 7.984375 0.0078125 6.640625 -0.5625 C 5.304688 -1.144531 4.179688 -1.929688 3.265625 -2.921875 C 2.359375 -3.910156 1.671875 -5.015625 1.203125 -6.234375 C 0.734375 -7.460938 0.5 -8.71875 0.5 -10 Z M 8.21875 -12.125 C 7.882812 -11.269531 7.765625 -10.578125 7.859375 -10.046875 C 7.953125 -9.523438 8.242188 -9.265625 8.734375 -9.265625 C 9.242188 -9.265625 9.753906 -9.523438 10.265625 -10.046875 C 10.785156 -10.578125 11.210938 -11.269531 11.546875 -12.125 C 11.890625 -12.988281 12.007812 -13.679688 11.90625 -14.203125 C 11.8125 -14.734375 11.507812 -15 11 -15 C 10.507812 -15 10.007812 -14.734375 9.5 -14.203125 C 8.988281 -13.679688 8.5625 -12.988281 8.21875 -12.125 Z M 8.21875 -12.125 "/></g></g></g><g fill="#c00a27" fill-opacity="1"><g transform="translate(64.139162, 29.293111)"><g><path d="M 6.859375 0.296875 C 5.617188 0.296875 4.492188 0.0351562 3.484375 -0.484375 C 2.484375 -1.015625 1.6875 -1.78125 1.09375 -2.78125 C 0.5 -3.789062 0.203125 -5.007812 0.203125 -6.4375 C 0.203125 -7.382812 0.320312 -8.289062 0.5625 -9.15625 C 0.800781 -10.019531 1.097656 -10.835938 1.453125 -11.609375 C 1.816406 -12.390625 2.175781 -13.113281 2.53125 -13.78125 C 2.882812 -14.445312 3.179688 -15.054688 3.421875 -15.609375 C 3.660156 -16.160156 3.78125 -16.65625 3.78125 -17.09375 C 3.78125 -17.445312 3.734375 -17.679688 3.640625 -17.796875 C 3.546875 -17.921875 3.40625 -17.984375 3.21875 -17.984375 C 3.039062 -17.984375 2.828125 -17.945312 2.578125 -17.875 C 2.328125 -17.8125 2.054688 -17.78125 1.765625 -17.78125 C 1.203125 -17.78125 0.800781 -17.894531 0.5625 -18.125 C 0.332031 -18.363281 0.21875 -18.6875 0.21875 -19.09375 C 0.21875 -19.601562 0.535156 -20.210938 1.171875 -20.921875 C 1.816406 -21.628906 2.644531 -22.445312 3.65625 -23.375 C 4.257812 -23.9375 4.835938 -24.488281 5.390625 -25.03125 C 5.941406 -25.582031 6.429688 -26.035156 6.859375 -26.390625 C 7.296875 -26.753906 7.628906 -26.9375 7.859375 -26.9375 C 8.128906 -26.9375 8.328125 -26.847656 8.453125 -26.671875 C 8.578125 -26.492188 8.660156 -26.269531 8.703125 -26 C 8.753906 -25.726562 8.78125 -25.472656 8.78125 -25.234375 L 8.78125 -20 L 9.59375 -20 C 9.914062 -20 10.175781 -19.898438 10.375 -19.703125 C 10.582031 -19.503906 10.6875 -19.242188 10.6875 -18.921875 L 10.6875 -18.859375 C 10.6875 -18.535156 10.582031 -18.273438 10.375 -18.078125 C 10.175781 -17.878906 9.914062 -17.78125 9.59375 -17.78125 L 8.78125 -17.78125 L 8.78125 -10 C 8.78125 -8.769531 8.875 -7.769531 9.0625 -7 C 9.25 -6.226562 9.484375 -5.609375 9.765625 -5.140625 C 10.046875 -4.679688 10.320312 -4.3125 10.59375 -4.03125 C 10.875 -3.757812 11.109375 -3.507812 11.296875 -3.28125 C 11.484375 -3.0625 11.578125 -2.796875 11.578125 -2.484375 C 11.578125 -2.035156 11.429688 -1.640625 11.140625 -1.296875 C 10.859375 -0.953125 10.484375 -0.660156 10.015625 -0.421875 C 9.546875 -0.179688 9.035156 -0.00390625 8.484375 0.109375 C 7.929688 0.234375 7.390625 0.296875 6.859375 0.296875 Z M 6.859375 0.296875 "/></g></g></g><g fill="#c00a27" fill-opacity="1"><g transform="translate(75.914514, 29.293111)"><g><path d="M 6.859375 0.296875 C 5.617188 0.296875 4.492188 0.0351562 3.484375 -0.484375 C 2.484375 -1.015625 1.6875 -1.78125 1.09375 -2.78125 C 0.5 -3.789062 0.203125 -5.007812 0.203125 -6.4375 C 0.203125 -7.382812 0.320312 -8.289062 0.5625 -9.15625 C 0.800781 -10.019531 1.097656 -10.835938 1.453125 -11.609375 C 1.816406 -12.390625 2.175781 -13.113281 2.53125 -13.78125 C 2.882812 -14.445312 3.179688 -15.054688 3.421875 -15.609375 C 3.660156 -16.160156 3.78125 -16.65625 3.78125 -17.09375 C 3.78125 -17.445312 3.734375 -17.679688 3.640625 -17.796875 C 3.546875 -17.921875 3.40625 -17.984375 3.21875 -17.984375 C 3.039062 -17.984375 2.828125 -17.945312 2.578125 -17.875 C 2.328125 -17.8125 2.054688 -17.78125 1.765625 -17.78125 C 1.203125 -17.78125 0.800781 -17.894531 0.5625 -18.125 C 0.332031 -18.363281 0.21875 -18.6875 0.21875 -19.09375 C 0.21875 -19.601562 0.535156 -20.210938 1.171875 -20.921875 C 1.816406 -21.628906 2.644531 -22.445312 3.65625 -23.375 C 4.257812 -23.9375 4.835938 -24.488281 5.390625 -25.03125 C 5.941406 -25.582031 6.429688 -26.035156 6.859375 -26.390625 C 7.296875 -26.753906 7.628906 -26.9375 7.859375 -26.9375 C 8.128906 -26.9375 8.328125 -26.847656 8.453125 -26.671875 C 8.578125 -26.492188 8.660156 -26.269531 8.703125 -26 C 8.753906 -25.726562 8.78125 -25.472656 8.78125 -25.234375 L 8.78125 -20 L 9.59375 -20 C 9.914062 -20 10.175781 -19.898438 10.375 -19.703125 C 10.582031 -19.503906 10.6875 -19.242188 10.6875 -18.921875 L 10.6875 -18.859375 C 10.6875 -18.535156 10.582031 -18.273438 10.375 -18.078125 C 10.175781 -17.878906 9.914062 -17.78125 9.59375 -17.78125 L 8.78125 -17.78125 L 8.78125 -10 C 8.78125 -8.769531 8.875 -7.769531 9.0625 -7 C 9.25 -6.226562 9.484375 -5.609375 9.765625 -5.140625 C 10.046875 -4.679688 10.320312 -4.3125 10.59375 -4.03125 C 10.875 -3.757812 11.109375 -3.507812 11.296875 -3.28125 C 11.484375 -3.0625 11.578125 -2.796875 11.578125 -2.484375 C 11.578125 -2.035156 11.429688 -1.640625 11.140625 -1.296875 C 10.859375 -0.953125 10.484375 -0.660156 10.015625 -0.421875 C 9.546875 -0.179688 9.035156 -0.00390625 8.484375 0.109375 C 7.929688 0.234375 7.390625 0.296875 6.859375 0.296875 Z M 6.859375 0.296875 "/></g></g></g><g fill="#c00a27" fill-opacity="1"><g transform="translate(87.689866, 29.293111)"><g><path d="M 0.5 -10 C 0.5 -11.269531 0.710938 -12.515625 1.140625 -13.734375 C 1.578125 -14.960938 2.238281 -16.070312 3.125 -17.0625 C 4.007812 -18.050781 5.128906 -18.835938 6.484375 -19.421875 C 7.835938 -20.003906 9.441406 -20.296875 11.296875 -20.296875 C 12.328125 -20.296875 13.316406 -20.164062 14.265625 -19.90625 C 15.210938 -19.644531 16.054688 -19.25 16.796875 -18.71875 C 17.535156 -18.195312 18.117188 -17.539062 18.546875 -16.75 C 18.984375 -15.96875 19.203125 -15.050781 19.203125 -14 C 19.203125 -12.84375 19.023438 -11.835938 18.671875 -10.984375 C 18.316406 -10.128906 17.84375 -9.40625 17.25 -8.8125 C 16.65625 -8.226562 16 -7.742188 15.28125 -7.359375 C 14.5625 -6.984375 13.832031 -6.679688 13.09375 -6.453125 C 12.40625 -6.242188 11.796875 -6.144531 11.265625 -6.15625 C 10.742188 -6.175781 10.328125 -6.1875 10.015625 -6.1875 C 9.847656 -6.1875 9.71875 -6.164062 9.625 -6.125 C 9.539062 -6.09375 9.5 -6.019531 9.5 -5.90625 C 9.5 -5.6875 9.613281 -5.507812 9.84375 -5.375 C 10.082031 -5.25 10.363281 -5.15625 10.6875 -5.09375 C 11.019531 -5.03125 11.316406 -5 11.578125 -5 C 12.296875 -5 12.898438 -5.085938 13.390625 -5.265625 C 13.890625 -5.453125 14.328125 -5.65625 14.703125 -5.875 C 15.078125 -6.101562 15.4375 -6.304688 15.78125 -6.484375 C 16.125 -6.671875 16.503906 -6.765625 16.921875 -6.765625 C 17.367188 -6.765625 17.753906 -6.648438 18.078125 -6.421875 C 18.410156 -6.203125 18.679688 -5.921875 18.890625 -5.578125 C 19.097656 -5.242188 19.25 -4.894531 19.34375 -4.53125 C 19.445312 -4.175781 19.5 -3.851562 19.5 -3.5625 C 19.5 -2.957031 19.207031 -2.359375 18.625 -1.765625 C 18.050781 -1.171875 17.160156 -0.675781 15.953125 -0.28125 C 14.742188 0.101562 13.191406 0.296875 11.296875 0.296875 C 9.535156 0.296875 7.984375 0.0078125 6.640625 -0.5625 C 5.304688 -1.144531 4.179688 -1.929688 3.265625 -2.921875 C 2.359375 -3.910156 1.671875 -5.015625 1.203125 -6.234375 C 0.734375 -7.460938 0.5 -8.71875 0.5 -10 Z M 8.21875 -12.125 C 7.882812 -11.269531 7.765625 -10.578125 7.859375 -10.046875 C 7.953125 -9.523438 8.242188 -9.265625 8.734375 -9.265625 C 9.242188 -9.265625 9.753906 -9.523438 10.265625 -10.046875 C 10.785156 -10.578125 11.210938 -11.269531 11.546875 -12.125 C 11.890625 -12.988281 12.007812 -13.679688 11.90625 -14.203125 C 11.8125 -14.734375 11.507812 -15 11 -15 C 10.507812 -15 10.007812 -14.734375 9.5 -14.203125 C 8.988281 -13.679688 8.5625 -12.988281 8.21875 -12.125 Z M 8.21875 -12.125 "/></g></g></g><g fill="#c00a27" fill-opacity="1"><g transform="translate(107.282139, 29.293111)"><g><path d="M 0.203125 -17.1875 C 0.203125 -17.644531 0.382812 -18.003906 0.75 -18.265625 C 1.125 -18.523438 1.597656 -18.738281 2.171875 -18.90625 C 2.753906 -19.070312 3.34375 -19.238281 3.9375 -19.40625 C 4.175781 -19.46875 4.476562 -19.546875 4.84375 -19.640625 C 5.21875 -19.742188 5.59375 -19.84375 5.96875 -19.9375 C 6.351562 -20.039062 6.691406 -20.125 6.984375 -20.1875 C 7.285156 -20.257812 7.503906 -20.296875 7.640625 -20.296875 C 8.023438 -20.296875 8.40625 -20.140625 8.78125 -19.828125 C 9.15625 -19.515625 9.425781 -18.929688 9.59375 -18.078125 C 10.101562 -18.453125 10.664062 -18.804688 11.28125 -19.140625 C 11.90625 -19.484375 12.5625 -19.757812 13.25 -19.96875 C 13.945312 -20.1875 14.65625 -20.296875 15.375 -20.296875 C 16.257812 -20.296875 17.082031 -20.085938 17.84375 -19.671875 C 18.613281 -19.253906 19.234375 -18.648438 19.703125 -17.859375 C 20.171875 -17.078125 20.40625 -16.128906 20.40625 -15.015625 C 20.40625 -13.753906 20.21875 -12.753906 19.84375 -12.015625 C 19.46875 -11.285156 18.929688 -10.765625 18.234375 -10.453125 C 17.546875 -10.148438 16.726562 -10 15.78125 -10 C 15.175781 -10 14.703125 -10.09375 14.359375 -10.28125 C 14.023438 -10.476562 13.773438 -10.726562 13.609375 -11.03125 C 13.453125 -11.332031 13.332031 -11.65625 13.25 -12 C 13.175781 -12.34375 13.097656 -12.664062 13.015625 -12.96875 C 12.941406 -13.269531 12.816406 -13.515625 12.640625 -13.703125 C 12.460938 -13.898438 12.195312 -14 11.84375 -14 C 11.425781 -14 11.085938 -13.878906 10.828125 -13.640625 C 10.566406 -13.398438 10.363281 -13.082031 10.21875 -12.6875 C 10.082031 -12.289062 9.976562 -11.859375 9.90625 -11.390625 C 9.84375 -10.929688 9.804688 -10.472656 9.796875 -10.015625 C 9.785156 -9.566406 9.78125 -9.160156 9.78125 -8.796875 C 9.78125 -7.898438 9.867188 -7.113281 10.046875 -6.4375 C 10.222656 -5.769531 10.4375 -5.171875 10.6875 -4.640625 C 10.9375 -4.117188 11.148438 -3.628906 11.328125 -3.171875 C 11.503906 -2.710938 11.59375 -2.25 11.59375 -1.78125 C 11.59375 -1.300781 11.492188 -0.9375 11.296875 -0.6875 C 11.097656 -0.4375 10.847656 -0.257812 10.546875 -0.15625 C 10.242188 -0.0625 9.941406 -0.0078125 9.640625 0 C 9.347656 0 9.09375 0 8.875 0 L 3.078125 0 C 2.867188 0 2.613281 0 2.3125 0 C 2.007812 -0.0078125 1.707031 -0.0625 1.40625 -0.15625 C 1.101562 -0.257812 0.851562 -0.4375 0.65625 -0.6875 C 0.457031 -0.9375 0.359375 -1.300781 0.359375 -1.78125 C 0.359375 -2.25 0.445312 -2.710938 0.625 -3.171875 C 0.8125 -3.628906 1.023438 -4.117188 1.265625 -4.640625 C 1.503906 -5.171875 1.710938 -5.769531 1.890625 -6.4375 C 2.066406 -7.113281 2.15625 -7.898438 2.15625 -8.796875 C 2.15625 -9.847656 2.085938 -10.75 1.953125 -11.5 C 1.828125 -12.257812 1.664062 -12.910156 1.46875 -13.453125 C 1.28125 -13.992188 1.085938 -14.46875 0.890625 -14.875 C 0.691406 -15.28125 0.523438 -15.660156 0.390625 -16.015625 C 0.265625 -16.378906 0.203125 -16.769531 0.203125 -17.1875 Z M 0.203125 -17.1875 "/></g></g></g><g fill="#f27141" fill-opacity="1"><g transform="translate(27.869644, 57.04311)"><g/></g></g><g fill="#ffffff" fill-opacity="1"><g transform="translate(35.475112, 57.04311)"><g><path d="M 0.40625 -1.8125 C 0.40625 -2.363281 0.445312 -2.859375 0.53125 -3.296875 C 0.613281 -3.734375 0.722656 -4.171875 0.859375 -4.609375 C 1.003906 -5.054688 1.15625 -5.550781 1.3125 -6.09375 C 1.46875 -6.644531 1.613281 -7.289062 1.75 -8.03125 C 1.882812 -8.78125 1.992188 -9.671875 2.078125 -10.703125 C 2.171875 -11.742188 2.21875 -12.976562 2.21875 -14.40625 C 2.21875 -15.832031 2.171875 -17.0625 2.078125 -18.09375 C 1.992188 -19.125 1.882812 -20.007812 1.75 -20.75 C 1.613281 -21.5 1.46875 -22.144531 1.3125 -22.6875 C 1.15625 -23.238281 1.003906 -23.734375 0.859375 -24.171875 C 0.722656 -24.617188 0.613281 -25.066406 0.53125 -25.515625 C 0.445312 -25.960938 0.40625 -26.453125 0.40625 -26.984375 C 0.40625 -27.472656 0.519531 -27.84375 0.75 -28.09375 C 0.976562 -28.351562 1.265625 -28.53125 1.609375 -28.625 C 1.953125 -28.726562 2.289062 -28.78125 2.625 -28.78125 C 2.957031 -28.789062 3.226562 -28.796875 3.4375 -28.796875 L 12.421875 -28.796875 C 14.722656 -28.796875 16.671875 -28.445312 18.265625 -27.75 C 19.859375 -27.0625 21.066406 -26.066406 21.890625 -24.765625 C 22.722656 -23.460938 23.140625 -21.894531 23.140625 -20.0625 C 23.140625 -18.625 22.921875 -17.382812 22.484375 -16.34375 C 22.054688 -15.3125 21.476562 -14.457031 20.75 -13.78125 C 20.019531 -13.101562 19.203125 -12.5625 18.296875 -12.15625 C 17.398438 -11.75 16.484375 -11.441406 15.546875 -11.234375 C 14.617188 -11.023438 13.734375 -10.890625 12.890625 -10.828125 C 12.046875 -10.765625 11.316406 -10.734375 10.703125 -10.734375 C 10.441406 -10.734375 10.257812 -10.65625 10.15625 -10.5 C 10.0625 -10.351562 10.015625 -10.1875 10.015625 -10 C 10.015625 -9.1875 10.09375 -8.421875 10.25 -7.703125 C 10.414062 -6.984375 10.609375 -6.296875 10.828125 -5.640625 C 11.046875 -4.984375 11.234375 -4.34375 11.390625 -3.71875 C 11.554688 -3.09375 11.640625 -2.457031 11.640625 -1.8125 C 11.640625 -1.320312 11.519531 -0.945312 11.28125 -0.6875 C 11.050781 -0.4375 10.765625 -0.257812 10.421875 -0.15625 C 10.085938 -0.0625 9.753906 -0.0078125 9.421875 0 C 9.085938 0 8.8125 0 8.59375 0 L 3.4375 0 C 3.226562 0 2.957031 0 2.625 0 C 2.289062 -0.0078125 1.953125 -0.0625 1.609375 -0.15625 C 1.265625 -0.257812 0.976562 -0.4375 0.75 -0.6875 C 0.519531 -0.945312 0.40625 -1.320312 0.40625 -1.8125 Z M 11.703125 -23.015625 C 11.265625 -23.035156 10.878906 -22.96875 10.546875 -22.8125 C 10.210938 -22.664062 10.046875 -22.390625 10.046875 -21.984375 L 10.046875 -18.8125 C 10.046875 -18.40625 10.210938 -18.132812 10.546875 -18 C 10.878906 -17.863281 11.265625 -17.789062 11.703125 -17.78125 C 12.460938 -17.769531 13.078125 -17.851562 13.546875 -18.03125 C 14.023438 -18.207031 14.390625 -18.4375 14.640625 -18.71875 C 14.890625 -19 15.0625 -19.289062 15.15625 -19.59375 C 15.25 -19.894531 15.296875 -20.164062 15.296875 -20.40625 C 15.296875 -20.625 15.25 -20.878906 15.15625 -21.171875 C 15.0625 -21.472656 14.890625 -21.753906 14.640625 -22.015625 C 14.390625 -22.285156 14.023438 -22.515625 13.546875 -22.703125 C 13.078125 -22.890625 12.460938 -22.992188 11.703125 -23.015625 Z M 11.703125 -23.015625 "/></g></g></g><g fill="#ffffff" fill-opacity="1"><g transform="translate(58.406061, 57.04311)"><g><path d="M 0.203125 -1.78125 C 0.203125 -2.3125 0.242188 -2.765625 0.328125 -3.140625 C 0.410156 -3.515625 0.519531 -3.882812 0.65625 -4.25 C 0.800781 -4.625 0.953125 -5.066406 1.109375 -5.578125 C 1.265625 -6.085938 1.410156 -6.726562 1.546875 -7.5 C 1.691406 -8.269531 1.804688 -9.242188 1.890625 -10.421875 C 1.972656 -11.609375 2.015625 -13.066406 2.015625 -14.796875 C 2.015625 -16.179688 1.972656 -17.378906 1.890625 -18.390625 C 1.804688 -19.398438 1.691406 -20.265625 1.546875 -20.984375 C 1.410156 -21.710938 1.265625 -22.335938 1.109375 -22.859375 C 0.953125 -23.390625 0.800781 -23.867188 0.65625 -24.296875 C 0.519531 -24.734375 0.410156 -25.164062 0.328125 -25.59375 C 0.242188 -26.019531 0.203125 -26.492188 0.203125 -27.015625 C 0.203125 -27.492188 0.316406 -27.859375 0.546875 -28.109375 C 0.785156 -28.359375 1.070312 -28.53125 1.40625 -28.625 C 1.75 -28.726562 2.085938 -28.78125 2.421875 -28.78125 C 2.753906 -28.789062 3.023438 -28.796875 3.234375 -28.796875 L 8.40625 -28.796875 C 8.613281 -28.796875 8.882812 -28.789062 9.21875 -28.78125 C 9.550781 -28.78125 9.882812 -28.726562 10.21875 -28.625 C 10.5625 -28.53125 10.847656 -28.359375 11.078125 -28.109375 C 11.316406 -27.859375 11.4375 -27.492188 11.4375 -27.015625 C 11.4375 -26.492188 11.394531 -26.019531 11.3125 -25.59375 C 11.226562 -25.164062 11.113281 -24.734375 10.96875 -24.296875 C 10.832031 -23.867188 10.6875 -23.390625 10.53125 -22.859375 C 10.375 -22.335938 10.222656 -21.710938 10.078125 -20.984375 C 9.941406 -20.265625 9.832031 -19.398438 9.75 -18.390625 C 9.664062 -17.378906 9.625 -16.179688 9.625 -14.796875 C 9.625 -13.066406 9.664062 -11.609375 9.75 -10.421875 C 9.832031 -9.242188 9.941406 -8.269531 10.078125 -7.5 C 10.222656 -6.726562 10.375 -6.085938 10.53125 -5.578125 C 10.6875 -5.066406 10.832031 -4.625 10.96875 -4.25 C 11.113281 -3.882812 11.226562 -3.515625 11.3125 -3.140625 C 11.394531 -2.765625 11.4375 -2.3125 11.4375 -1.78125 C 11.4375 -1.300781 11.316406 -0.9375 11.078125 -0.6875 C 10.847656 -0.4375 10.5625 -0.257812 10.21875 -0.15625 C 9.882812 -0.0625 9.550781 -0.0078125 9.21875 0 C 8.882812 0 8.613281 0 8.40625 0 L 3.234375 0 C 3.023438 0 2.753906 0 2.421875 0 C 2.085938 -0.0078125 1.75 -0.0625 1.40625 -0.15625 C 1.070312 -0.257812 0.785156 -0.4375 0.546875 -0.6875 C 0.316406 -0.9375 0.203125 -1.300781 0.203125 -1.78125 Z M 0.203125 -1.78125 "/></g></g></g><g fill="#ffffff" fill-opacity="1"><g transform="translate(70.041475, 57.04311)"><g><path d="M 0.5 -10 C 0.5 -11.382812 0.65625 -12.601562 0.96875 -13.65625 C 1.28125 -14.707031 1.703125 -15.613281 2.234375 -16.375 C 2.773438 -17.132812 3.367188 -17.765625 4.015625 -18.265625 C 4.671875 -18.765625 5.34375 -19.164062 6.03125 -19.46875 C 6.726562 -19.769531 7.394531 -19.984375 8.03125 -20.109375 C 8.675781 -20.234375 9.238281 -20.296875 9.71875 -20.296875 C 10.582031 -20.304688 11.269531 -20.285156 11.78125 -20.234375 C 12.300781 -20.179688 12.726562 -20.128906 13.0625 -20.078125 C 13.40625 -20.023438 13.742188 -20 14.078125 -20 C 14.773438 -20 15.335938 -20.023438 15.765625 -20.078125 C 16.191406 -20.128906 16.5625 -20.175781 16.875 -20.21875 C 17.1875 -20.269531 17.492188 -20.296875 17.796875 -20.296875 C 18.015625 -20.296875 18.265625 -20.269531 18.546875 -20.21875 C 18.835938 -20.164062 19.117188 -20.054688 19.390625 -19.890625 C 19.671875 -19.734375 19.90625 -19.507812 20.09375 -19.21875 C 20.28125 -18.925781 20.375 -18.539062 20.375 -18.0625 C 20.375 -17.59375 20.300781 -17.101562 20.15625 -16.59375 C 20.019531 -16.09375 19.863281 -15.535156 19.6875 -14.921875 C 19.519531 -14.304688 19.363281 -13.597656 19.21875 -12.796875 C 19.082031 -11.992188 19.015625 -11.0625 19.015625 -10 C 19.015625 -9.082031 19.0625 -8.300781 19.15625 -7.65625 C 19.257812 -7.007812 19.390625 -6.445312 19.546875 -5.96875 C 19.703125 -5.5 19.851562 -5.085938 20 -4.734375 C 20.15625 -4.378906 20.285156 -4.039062 20.390625 -3.71875 C 20.492188 -3.394531 20.546875 -3.054688 20.546875 -2.703125 C 20.546875 -2.109375 20.316406 -1.582031 19.859375 -1.125 C 19.410156 -0.675781 18.804688 -0.328125 18.046875 -0.078125 C 17.285156 0.171875 16.429688 0.296875 15.484375 0.296875 C 15.066406 0.296875 14.742188 0.234375 14.515625 0.109375 C 14.296875 -0.00390625 14.113281 -0.132812 13.96875 -0.28125 C 13.832031 -0.4375 13.679688 -0.570312 13.515625 -0.6875 C 13.359375 -0.8125 13.144531 -0.875 12.875 -0.875 C 12.582031 -0.875 12.320312 -0.8125 12.09375 -0.6875 C 11.875 -0.570312 11.617188 -0.4375 11.328125 -0.28125 C 11.046875 -0.132812 10.691406 -0.00390625 10.265625 0.109375 C 9.835938 0.234375 9.273438 0.296875 8.578125 0.296875 C 7.472656 0.296875 6.429688 0.0507812 5.453125 -0.4375 C 4.472656 -0.9375 3.613281 -1.640625 2.875 -2.546875 C 2.132812 -3.453125 1.550781 -4.535156 1.125 -5.796875 C 0.707031 -7.066406 0.5 -8.46875 0.5 -10 Z M 9.875 -15.015625 C 9.34375 -15.015625 8.910156 -14.554688 8.578125 -13.640625 C 8.253906 -12.722656 8.09375 -11.507812 8.09375 -10 C 8.09375 -8.507812 8.253906 -7.300781 8.578125 -6.375 C 8.910156 -5.457031 9.34375 -5 9.875 -5 C 10.414062 -5 10.847656 -5.457031 11.171875 -6.375 C 11.492188 -7.300781 11.65625 -8.507812 11.65625 -10 C 11.65625 -11.507812 11.492188 -12.722656 11.171875 -13.640625 C 10.847656 -14.554688 10.414062 -15.015625 9.875 -15.015625 Z M 9.875 -15.015625 "/></g></g></g><g fill="#ffffff" fill-opacity="1"><g transform="translate(90.7533, 57.04311)"><g><path d="M 6.859375 0.296875 C 5.617188 0.296875 4.492188 0.0351562 3.484375 -0.484375 C 2.484375 -1.015625 1.6875 -1.78125 1.09375 -2.78125 C 0.5 -3.789062 0.203125 -5.007812 0.203125 -6.4375 C 0.203125 -7.382812 0.320312 -8.289062 0.5625 -9.15625 C 0.800781 -10.019531 1.097656 -10.835938 1.453125 -11.609375 C 1.816406 -12.390625 2.175781 -13.113281 2.53125 -13.78125 C 2.882812 -14.445312 3.179688 -15.054688 3.421875 -15.609375 C 3.660156 -16.160156 3.78125 -16.65625 3.78125 -17.09375 C 3.78125 -17.445312 3.734375 -17.679688 3.640625 -17.796875 C 3.546875 -17.921875 3.40625 -17.984375 3.21875 -17.984375 C 3.039062 -17.984375 2.828125 -17.945312 2.578125 -17.875 C 2.328125 -17.8125 2.054688 -17.78125 1.765625 -17.78125 C 1.203125 -17.78125 0.800781 -17.894531 0.5625 -18.125 C 0.332031 -18.363281 0.21875 -18.6875 0.21875 -19.09375 C 0.21875 -19.601562 0.535156 -20.210938 1.171875 -20.921875 C 1.816406 -21.628906 2.644531 -22.445312 3.65625 -23.375 C 4.257812 -23.9375 4.835938 -24.488281 5.390625 -25.03125 C 5.941406 -25.582031 6.429688 -26.035156 6.859375 -26.390625 C 7.296875 -26.753906 7.628906 -26.9375 7.859375 -26.9375 C 8.128906 -26.9375 8.328125 -26.847656 8.453125 -26.671875 C 8.578125 -26.492188 8.660156 -26.269531 8.703125 -26 C 8.753906 -25.726562 8.78125 -25.472656 8.78125 -25.234375 L 8.78125 -20 L 9.59375 -20 C 9.914062 -20 10.175781 -19.898438 10.375 -19.703125 C 10.582031 -19.503906 10.6875 -19.242188 10.6875 -18.921875 L 10.6875 -18.859375 C 10.6875 -18.535156 10.582031 -18.273438 10.375 -18.078125 C 10.175781 -17.878906 9.914062 -17.78125 9.59375 -17.78125 L 8.78125 -17.78125 L 8.78125 -10 C 8.78125 -8.769531 8.875 -7.769531 9.0625 -7 C 9.25 -6.226562 9.484375 -5.609375 9.765625 -5.140625 C 10.046875 -4.679688 10.320312 -4.3125 10.59375 -4.03125 C 10.875 -3.757812 11.109375 -3.507812 11.296875 -3.28125 C 11.484375 -3.0625 11.578125 -2.796875 11.578125 -2.484375 C 11.578125 -2.035156 11.429688 -1.640625 11.140625 -1.296875 C 10.859375 -0.953125 10.484375 -0.660156 10.015625 -0.421875 C 9.546875 -0.179688 9.035156 -0.00390625 8.484375 0.109375 C 7.929688 0.234375 7.390625 0.296875 6.859375 0.296875 Z M 6.859375 0.296875 "/></g></g></g><g fill="#ffffff" fill-opacity="1"><g transform="translate(102.528652, 57.04311)"><g><path d="M 0.5 -10 C 0.5 -11.269531 0.710938 -12.515625 1.140625 -13.734375 C 1.578125 -14.960938 2.238281 -16.070312 3.125 -17.0625 C 4.007812 -18.050781 5.128906 -18.835938 6.484375 -19.421875 C 7.835938 -20.003906 9.441406 -20.296875 11.296875 -20.296875 C 12.328125 -20.296875 13.316406 -20.164062 14.265625 -19.90625 C 15.210938 -19.644531 16.054688 -19.25 16.796875 -18.71875 C 17.535156 -18.195312 18.117188 -17.539062 18.546875 -16.75 C 18.984375 -15.96875 19.203125 -15.050781 19.203125 -14 C 19.203125 -12.84375 19.023438 -11.835938 18.671875 -10.984375 C 18.316406 -10.128906 17.84375 -9.40625 17.25 -8.8125 C 16.65625 -8.226562 16 -7.742188 15.28125 -7.359375 C 14.5625 -6.984375 13.832031 -6.679688 13.09375 -6.453125 C 12.40625 -6.242188 11.796875 -6.144531 11.265625 -6.15625 C 10.742188 -6.175781 10.328125 -6.1875 10.015625 -6.1875 C 9.847656 -6.1875 9.71875 -6.164062 9.625 -6.125 C 9.539062 -6.09375 9.5 -6.019531 9.5 -5.90625 C 9.5 -5.6875 9.613281 -5.507812 9.84375 -5.375 C 10.082031 -5.25 10.363281 -5.15625 10.6875 -5.09375 C 11.019531 -5.03125 11.316406 -5 11.578125 -5 C 12.296875 -5 12.898438 -5.085938 13.390625 -5.265625 C 13.890625 -5.453125 14.328125 -5.65625 14.703125 -5.875 C 15.078125 -6.101562 15.4375 -6.304688 15.78125 -6.484375 C 16.125 -6.671875 16.503906 -6.765625 16.921875 -6.765625 C 17.367188 -6.765625 17.753906 -6.648438 18.078125 -6.421875 C 18.410156 -6.203125 18.679688 -5.921875 18.890625 -5.578125 C 19.097656 -5.242188 19.25 -4.894531 19.34375 -4.53125 C 19.445312 -4.175781 19.5 -3.851562 19.5 -3.5625 C 19.5 -2.957031 19.207031 -2.359375 18.625 -1.765625 C 18.050781 -1.171875 17.160156 -0.675781 15.953125 -0.28125 C 14.742188 0.101562 13.191406 0.296875 11.296875 0.296875 C 9.535156 0.296875 7.984375 0.0078125 6.640625 -0.5625 C 5.304688 -1.144531 4.179688 -1.929688 3.265625 -2.921875 C 2.359375 -3.910156 1.671875 -5.015625 1.203125 -6.234375 C 0.734375 -7.460938 0.5 -8.71875 0.5 -10 Z M 8.21875 -12.125 C 7.882812 -11.269531 7.765625 -10.578125 7.859375 -10.046875 C 7.953125 -9.523438 8.242188 -9.265625 8.734375 -9.265625 C 9.242188 -9.265625 9.753906 -9.523438 10.265625 -10.046875 C 10.785156 -10.578125 11.210938 -11.269531 11.546875 -12.125 C 11.890625 -12.988281 12.007812 -13.679688 11.90625 -14.203125 C 11.8125 -14.734375 11.507812 -15 11 -15 C 10.507812 -15 10.007812 -14.734375 9.5 -14.203125 C 8.988281 -13.679688 8.5625 -12.988281 8.21875 -12.125 Z M 8.21875 -12.125 "/></g></g></g></svg>