<svg xmlns="http://www.w3.org/2000/svg" xmlns:xlink="http://www.w3.org/1999/xlink" width="160" zoomAndPan="magnify" viewBox="0 0 120 60" height="80" preserveAspectRatio="xMidYMid meet" version="1.0"><defs><g/><clipPath id="4b2fe4499e"><path d="M 0.199219 0.199219 L 23 0.199219 L 23 29 L 0.199219 29 Z M 0.199219 0.199219 " clip-rule="nonzero"/></clipPath><clipPath id="d6133cc071"><rect x="0" width="107" y="0" height="59"/></clipPath></defs><g transform="matrix(1, 0, 0, 1, 7, 1)"><g clip-path="url(#d6133cc071)"><g clip-path="url(#4b2fe4499e)"><g fill="#c00a27" fill-opacity="1"><g transform="translate(0.446426, 28.837366)"><g><path d="M 0.390625 -1.765625 C 0.390625 -2.441406 0.445312 -3.0625 0.5625 -3.625 C 0.6875 -4.1875 0.835938 -4.773438 1.015625 -5.390625 C 1.203125 -6.003906 1.382812 -6.71875 1.5625 -7.53125 C 1.75 -8.351562 1.898438 -9.335938 2.015625 -10.484375 C 2.140625 -11.640625 2.203125 -13.046875 2.203125 -14.703125 C 2.203125 -16.085938 2.160156 -17.28125 2.078125 -18.28125 C 1.992188 -19.28125 1.878906 -20.132812 1.734375 -20.84375 C 1.597656 -21.5625 1.453125 -22.1875 1.296875 -22.71875 C 1.148438 -23.25 1.003906 -23.726562 0.859375 -24.15625 C 0.722656 -24.582031 0.609375 -25.007812 0.515625 -25.4375 C 0.429688 -25.863281 0.390625 -26.332031 0.390625 -26.84375 C 0.390625 -27.320312 0.503906 -27.679688 0.734375 -27.921875 C 0.972656 -28.171875 1.257812 -28.34375 1.59375 -28.4375 C 1.9375 -28.539062 2.269531 -28.597656 2.59375 -28.609375 C 2.925781 -28.617188 3.203125 -28.625 3.421875 -28.625 L 14.734375 -28.625 C 16.097656 -28.625 17.304688 -28.347656 18.359375 -27.796875 C 19.410156 -27.242188 20.238281 -26.46875 20.84375 -25.46875 C 21.445312 -24.476562 21.75 -23.320312 21.75 -22 C 21.75 -21.425781 21.671875 -20.84375 21.515625 -20.25 C 21.359375 -19.65625 21.101562 -19.082031 20.75 -18.53125 C 20.40625 -17.976562 19.941406 -17.488281 19.359375 -17.0625 C 18.785156 -16.632812 18.078125 -16.304688 17.234375 -16.078125 C 16.898438 -15.984375 16.734375 -15.859375 16.734375 -15.703125 C 16.734375 -15.597656 16.863281 -15.484375 17.125 -15.359375 C 17.394531 -15.242188 17.734375 -15.09375 18.140625 -14.90625 C 18.554688 -14.726562 19 -14.476562 19.46875 -14.15625 C 19.9375 -13.832031 20.375 -13.410156 20.78125 -12.890625 C 21.195312 -12.378906 21.535156 -11.734375 21.796875 -10.953125 C 22.066406 -10.171875 22.203125 -9.21875 22.203125 -8.09375 C 22.203125 -7.40625 22.101562 -6.6875 21.90625 -5.9375 C 21.71875 -5.1875 21.414062 -4.457031 21 -3.75 C 20.582031 -3.050781 20.03125 -2.414062 19.34375 -1.84375 C 18.65625 -1.28125 17.8125 -0.832031 16.8125 -0.5 C 15.820312 -0.164062 14.65625 0 13.3125 0 L 3.09375 0 C 2.882812 0 2.628906 0 2.328125 0 C 2.035156 -0.0078125 1.738281 -0.0625 1.4375 -0.15625 C 1.144531 -0.257812 0.894531 -0.429688 0.6875 -0.671875 C 0.488281 -0.921875 0.390625 -1.285156 0.390625 -1.765625 Z M 9.71875 -7.1875 C 9.71875 -6.625 9.820312 -6.242188 10.03125 -6.046875 C 10.25 -5.859375 10.539062 -5.765625 10.90625 -5.765625 C 11.5625 -5.765625 12.09375 -5.890625 12.5 -6.140625 C 12.914062 -6.390625 13.238281 -6.707031 13.46875 -7.09375 C 13.695312 -7.476562 13.859375 -7.875 13.953125 -8.28125 C 14.046875 -8.695312 14.09375 -9.0625 14.09375 -9.375 C 14.09375 -9.695312 14.046875 -10.066406 13.953125 -10.484375 C 13.859375 -10.898438 13.695312 -11.300781 13.46875 -11.6875 C 13.238281 -12.070312 12.914062 -12.390625 12.5 -12.640625 C 12.09375 -12.890625 11.5625 -13.015625 10.90625 -13.015625 C 10.539062 -13.015625 10.25 -12.921875 10.03125 -12.734375 C 9.820312 -12.554688 9.71875 -12.175781 9.71875 -11.59375 C 9.71875 -11.457031 9.71875 -11.238281 9.71875 -10.9375 C 9.726562 -10.644531 9.738281 -10.347656 9.75 -10.046875 C 9.757812 -9.742188 9.765625 -9.519531 9.765625 -9.375 C 9.765625 -9.25 9.757812 -9.035156 9.75 -8.734375 C 9.738281 -8.429688 9.726562 -8.132812 9.71875 -7.84375 C 9.71875 -7.550781 9.71875 -7.332031 9.71875 -7.1875 Z M 9.71875 -18.703125 C 9.71875 -18.296875 9.820312 -18.019531 10.03125 -17.875 C 10.25 -17.738281 10.539062 -17.671875 10.90625 -17.671875 C 11.5625 -17.671875 12.09375 -17.757812 12.5 -17.9375 C 12.914062 -18.113281 13.238281 -18.34375 13.46875 -18.625 C 13.695312 -18.90625 13.859375 -19.191406 13.953125 -19.484375 C 14.046875 -19.773438 14.09375 -20.035156 14.09375 -20.265625 C 14.09375 -20.492188 14.046875 -20.753906 13.953125 -21.046875 C 13.859375 -21.347656 13.695312 -21.640625 13.46875 -21.921875 C 13.238281 -22.203125 12.914062 -22.429688 12.5 -22.609375 C 12.09375 -22.785156 11.5625 -22.875 10.90625 -22.875 C 10.539062 -22.875 10.25 -22.800781 10.03125 -22.65625 C 9.820312 -22.519531 9.71875 -22.25 9.71875 -21.84375 Z M 9.71875 -18.703125 "/></g></g></g></g><g fill="#c00a27" fill-opacity="1"><g transform="translate(22.738418, 28.837366)"><g><path d="M 0.5 -9.9375 C 0.5 -11.195312 0.710938 -12.4375 1.140625 -13.65625 C 1.566406 -14.875 2.222656 -15.972656 3.109375 -16.953125 C 3.992188 -17.929688 5.109375 -18.710938 6.453125 -19.296875 C 7.796875 -19.878906 9.390625 -20.171875 11.234375 -20.171875 C 12.253906 -20.171875 13.234375 -20.039062 14.171875 -19.78125 C 15.109375 -19.519531 15.941406 -19.128906 16.671875 -18.609375 C 17.410156 -18.085938 17.992188 -17.4375 18.421875 -16.65625 C 18.859375 -15.875 19.078125 -14.957031 19.078125 -13.90625 C 19.078125 -12.757812 18.898438 -11.757812 18.546875 -10.90625 C 18.203125 -10.0625 17.734375 -9.347656 17.140625 -8.765625 C 16.546875 -8.179688 15.890625 -7.695312 15.171875 -7.3125 C 14.460938 -6.9375 13.742188 -6.640625 13.015625 -6.421875 C 12.328125 -6.210938 11.722656 -6.113281 11.203125 -6.125 C 10.679688 -6.132812 10.265625 -6.140625 9.953125 -6.140625 C 9.785156 -6.140625 9.65625 -6.125 9.5625 -6.09375 C 9.476562 -6.0625 9.4375 -5.984375 9.4375 -5.859375 C 9.4375 -5.648438 9.550781 -5.476562 9.78125 -5.34375 C 10.019531 -5.207031 10.300781 -5.109375 10.625 -5.046875 C 10.945312 -4.992188 11.238281 -4.96875 11.5 -4.96875 C 12.21875 -4.96875 12.820312 -5.054688 13.3125 -5.234375 C 13.800781 -5.410156 14.234375 -5.613281 14.609375 -5.84375 C 14.984375 -6.070312 15.34375 -6.273438 15.6875 -6.453125 C 16.03125 -6.628906 16.40625 -6.71875 16.8125 -6.71875 C 17.257812 -6.71875 17.644531 -6.609375 17.96875 -6.390625 C 18.300781 -6.171875 18.566406 -5.890625 18.765625 -5.546875 C 18.972656 -5.210938 19.125 -4.863281 19.21875 -4.5 C 19.320312 -4.144531 19.375 -3.820312 19.375 -3.53125 C 19.375 -2.9375 19.085938 -2.34375 18.515625 -1.75 C 17.941406 -1.164062 17.050781 -0.675781 15.84375 -0.28125 C 14.644531 0.101562 13.109375 0.296875 11.234375 0.296875 C 9.484375 0.296875 7.941406 0.0078125 6.609375 -0.5625 C 5.273438 -1.144531 4.15625 -1.925781 3.25 -2.90625 C 2.34375 -3.882812 1.65625 -4.984375 1.1875 -6.203125 C 0.726562 -7.421875 0.5 -8.664062 0.5 -9.9375 Z M 8.171875 -12.046875 C 7.835938 -11.191406 7.71875 -10.503906 7.8125 -9.984375 C 7.90625 -9.460938 8.195312 -9.203125 8.6875 -9.203125 C 9.1875 -9.203125 9.691406 -9.460938 10.203125 -9.984375 C 10.710938 -10.503906 11.132812 -11.191406 11.46875 -12.046875 C 11.8125 -12.910156 11.929688 -13.601562 11.828125 -14.125 C 11.734375 -14.644531 11.4375 -14.90625 10.9375 -14.90625 C 10.445312 -14.90625 9.945312 -14.644531 9.4375 -14.125 C 8.9375 -13.601562 8.515625 -12.910156 8.171875 -12.046875 Z M 8.171875 -12.046875 "/></g></g></g><g fill="#c00a27" fill-opacity="1"><g transform="translate(42.20914, 28.837366)"><g><path d="M 6.8125 0.296875 C 5.582031 0.296875 4.46875 0.0351562 3.46875 -0.484375 C 2.46875 -1.003906 1.671875 -1.765625 1.078125 -2.765625 C 0.492188 -3.765625 0.203125 -4.976562 0.203125 -6.40625 C 0.203125 -7.34375 0.320312 -8.238281 0.5625 -9.09375 C 0.800781 -9.957031 1.097656 -10.773438 1.453125 -11.546875 C 1.804688 -12.316406 2.160156 -13.03125 2.515625 -13.6875 C 2.867188 -14.351562 3.160156 -14.960938 3.390625 -15.515625 C 3.628906 -16.066406 3.75 -16.5625 3.75 -17 C 3.75 -17.34375 3.703125 -17.570312 3.609375 -17.6875 C 3.523438 -17.8125 3.390625 -17.875 3.203125 -17.875 C 3.023438 -17.875 2.8125 -17.835938 2.5625 -17.765625 C 2.3125 -17.703125 2.039062 -17.671875 1.75 -17.671875 C 1.195312 -17.671875 0.800781 -17.785156 0.5625 -18.015625 C 0.332031 -18.242188 0.21875 -18.566406 0.21875 -18.984375 C 0.21875 -19.484375 0.535156 -20.082031 1.171875 -20.78125 C 1.804688 -21.488281 2.628906 -22.304688 3.640625 -23.234375 C 4.234375 -23.785156 4.804688 -24.332031 5.359375 -24.875 C 5.910156 -25.425781 6.398438 -25.878906 6.828125 -26.234375 C 7.253906 -26.585938 7.582031 -26.765625 7.8125 -26.765625 C 8.070312 -26.765625 8.265625 -26.675781 8.390625 -26.5 C 8.523438 -26.320312 8.613281 -26.097656 8.65625 -25.828125 C 8.695312 -25.566406 8.71875 -25.316406 8.71875 -25.078125 L 8.71875 -19.875 L 9.546875 -19.875 C 9.859375 -19.875 10.113281 -19.773438 10.3125 -19.578125 C 10.507812 -19.378906 10.609375 -19.117188 10.609375 -18.796875 L 10.609375 -18.734375 C 10.609375 -18.421875 10.507812 -18.164062 10.3125 -17.96875 C 10.113281 -17.769531 9.859375 -17.671875 9.546875 -17.671875 L 8.71875 -17.671875 L 8.71875 -9.9375 C 8.71875 -8.71875 8.8125 -7.722656 9 -6.953125 C 9.1875 -6.179688 9.414062 -5.566406 9.6875 -5.109375 C 9.96875 -4.660156 10.25 -4.296875 10.53125 -4.015625 C 10.8125 -3.734375 11.039062 -3.484375 11.21875 -3.265625 C 11.40625 -3.046875 11.5 -2.78125 11.5 -2.46875 C 11.5 -2.03125 11.359375 -1.640625 11.078125 -1.296875 C 10.796875 -0.953125 10.421875 -0.660156 9.953125 -0.421875 C 9.492188 -0.179688 8.988281 -0.00390625 8.4375 0.109375 C 7.882812 0.234375 7.34375 0.296875 6.8125 0.296875 Z M 6.8125 0.296875 "/></g></g></g><g fill="#c00a27" fill-opacity="1"><g transform="translate(53.911441, 28.837366)"><g><path d="M 6.8125 0.296875 C 5.582031 0.296875 4.46875 0.0351562 3.46875 -0.484375 C 2.46875 -1.003906 1.671875 -1.765625 1.078125 -2.765625 C 0.492188 -3.765625 0.203125 -4.976562 0.203125 -6.40625 C 0.203125 -7.34375 0.320312 -8.238281 0.5625 -9.09375 C 0.800781 -9.957031 1.097656 -10.773438 1.453125 -11.546875 C 1.804688 -12.316406 2.160156 -13.03125 2.515625 -13.6875 C 2.867188 -14.351562 3.160156 -14.960938 3.390625 -15.515625 C 3.628906 -16.066406 3.75 -16.5625 3.75 -17 C 3.75 -17.34375 3.703125 -17.570312 3.609375 -17.6875 C 3.523438 -17.8125 3.390625 -17.875 3.203125 -17.875 C 3.023438 -17.875 2.8125 -17.835938 2.5625 -17.765625 C 2.3125 -17.703125 2.039062 -17.671875 1.75 -17.671875 C 1.195312 -17.671875 0.800781 -17.785156 0.5625 -18.015625 C 0.332031 -18.242188 0.21875 -18.566406 0.21875 -18.984375 C 0.21875 -19.484375 0.535156 -20.082031 1.171875 -20.78125 C 1.804688 -21.488281 2.628906 -22.304688 3.640625 -23.234375 C 4.234375 -23.785156 4.804688 -24.332031 5.359375 -24.875 C 5.910156 -25.425781 6.398438 -25.878906 6.828125 -26.234375 C 7.253906 -26.585938 7.582031 -26.765625 7.8125 -26.765625 C 8.070312 -26.765625 8.265625 -26.675781 8.390625 -26.5 C 8.523438 -26.320312 8.613281 -26.097656 8.65625 -25.828125 C 8.695312 -25.566406 8.71875 -25.316406 8.71875 -25.078125 L 8.71875 -19.875 L 9.546875 -19.875 C 9.859375 -19.875 10.113281 -19.773438 10.3125 -19.578125 C 10.507812 -19.378906 10.609375 -19.117188 10.609375 -18.796875 L 10.609375 -18.734375 C 10.609375 -18.421875 10.507812 -18.164062 10.3125 -17.96875 C 10.113281 -17.769531 9.859375 -17.671875 9.546875 -17.671875 L 8.71875 -17.671875 L 8.71875 -9.9375 C 8.71875 -8.71875 8.8125 -7.722656 9 -6.953125 C 9.1875 -6.179688 9.414062 -5.566406 9.6875 -5.109375 C 9.96875 -4.660156 10.25 -4.296875 10.53125 -4.015625 C 10.8125 -3.734375 11.039062 -3.484375 11.21875 -3.265625 C 11.40625 -3.046875 11.5 -2.78125 11.5 -2.46875 C 11.5 -2.03125 11.359375 -1.640625 11.078125 -1.296875 C 10.796875 -0.953125 10.421875 -0.660156 9.953125 -0.421875 C 9.492188 -0.179688 8.988281 -0.00390625 8.4375 0.109375 C 7.882812 0.234375 7.34375 0.296875 6.8125 0.296875 Z M 6.8125 0.296875 "/></g></g></g><g fill="#c00a27" fill-opacity="1"><g transform="translate(65.613742, 28.837366)"><g><path d="M 0.5 -9.9375 C 0.5 -11.195312 0.710938 -12.4375 1.140625 -13.65625 C 1.566406 -14.875 2.222656 -15.972656 3.109375 -16.953125 C 3.992188 -17.929688 5.109375 -18.710938 6.453125 -19.296875 C 7.796875 -19.878906 9.390625 -20.171875 11.234375 -20.171875 C 12.253906 -20.171875 13.234375 -20.039062 14.171875 -19.78125 C 15.109375 -19.519531 15.941406 -19.128906 16.671875 -18.609375 C 17.410156 -18.085938 17.992188 -17.4375 18.421875 -16.65625 C 18.859375 -15.875 19.078125 -14.957031 19.078125 -13.90625 C 19.078125 -12.757812 18.898438 -11.757812 18.546875 -10.90625 C 18.203125 -10.0625 17.734375 -9.347656 17.140625 -8.765625 C 16.546875 -8.179688 15.890625 -7.695312 15.171875 -7.3125 C 14.460938 -6.9375 13.742188 -6.640625 13.015625 -6.421875 C 12.328125 -6.210938 11.722656 -6.113281 11.203125 -6.125 C 10.679688 -6.132812 10.265625 -6.140625 9.953125 -6.140625 C 9.785156 -6.140625 9.65625 -6.125 9.5625 -6.09375 C 9.476562 -6.0625 9.4375 -5.984375 9.4375 -5.859375 C 9.4375 -5.648438 9.550781 -5.476562 9.78125 -5.34375 C 10.019531 -5.207031 10.300781 -5.109375 10.625 -5.046875 C 10.945312 -4.992188 11.238281 -4.96875 11.5 -4.96875 C 12.21875 -4.96875 12.820312 -5.054688 13.3125 -5.234375 C 13.800781 -5.410156 14.234375 -5.613281 14.609375 -5.84375 C 14.984375 -6.070312 15.34375 -6.273438 15.6875 -6.453125 C 16.03125 -6.628906 16.40625 -6.71875 16.8125 -6.71875 C 17.257812 -6.71875 17.644531 -6.609375 17.96875 -6.390625 C 18.300781 -6.171875 18.566406 -5.890625 18.765625 -5.546875 C 18.972656 -5.210938 19.125 -4.863281 19.21875 -4.5 C 19.320312 -4.144531 19.375 -3.820312 19.375 -3.53125 C 19.375 -2.9375 19.085938 -2.34375 18.515625 -1.75 C 17.941406 -1.164062 17.050781 -0.675781 15.84375 -0.28125 C 14.644531 0.101562 13.109375 0.296875 11.234375 0.296875 C 9.484375 0.296875 7.941406 0.0078125 6.609375 -0.5625 C 5.273438 -1.144531 4.15625 -1.925781 3.25 -2.90625 C 2.34375 -3.882812 1.65625 -4.984375 1.1875 -6.203125 C 0.726562 -7.421875 0.5 -8.664062 0.5 -9.9375 Z M 8.171875 -12.046875 C 7.835938 -11.191406 7.71875 -10.503906 7.8125 -9.984375 C 7.90625 -9.460938 8.195312 -9.203125 8.6875 -9.203125 C 9.1875 -9.203125 9.691406 -9.460938 10.203125 -9.984375 C 10.710938 -10.503906 11.132812 -11.191406 11.46875 -12.046875 C 11.8125 -12.910156 11.929688 -13.601562 11.828125 -14.125 C 11.734375 -14.644531 11.4375 -14.90625 10.9375 -14.90625 C 10.445312 -14.90625 9.945312 -14.644531 9.4375 -14.125 C 8.9375 -13.601562 8.515625 -12.910156 8.171875 -12.046875 Z M 8.171875 -12.046875 "/></g></g></g><g fill="#c00a27" fill-opacity="1"><g transform="translate(85.084463, 28.837366)"><g><path d="M 0.203125 -17.078125 C 0.203125 -17.535156 0.382812 -17.894531 0.75 -18.15625 C 1.125 -18.414062 1.59375 -18.628906 2.15625 -18.796875 C 2.726562 -18.960938 3.316406 -19.125 3.921875 -19.28125 C 4.148438 -19.34375 4.445312 -19.421875 4.8125 -19.515625 C 5.175781 -19.617188 5.546875 -19.71875 5.921875 -19.8125 C 6.304688 -19.914062 6.644531 -20 6.9375 -20.0625 C 7.238281 -20.132812 7.457031 -20.171875 7.59375 -20.171875 C 7.976562 -20.171875 8.351562 -20.015625 8.71875 -19.703125 C 9.09375 -19.390625 9.367188 -18.8125 9.546875 -17.96875 C 10.046875 -18.34375 10.601562 -18.695312 11.21875 -19.03125 C 11.832031 -19.363281 12.484375 -19.632812 13.171875 -19.84375 C 13.859375 -20.0625 14.5625 -20.171875 15.28125 -20.171875 C 16.15625 -20.171875 16.972656 -19.960938 17.734375 -19.546875 C 18.492188 -19.128906 19.101562 -18.53125 19.5625 -17.75 C 20.03125 -16.96875 20.265625 -16.023438 20.265625 -14.921875 C 20.265625 -13.660156 20.078125 -12.664062 19.703125 -11.9375 C 19.335938 -11.21875 18.8125 -10.703125 18.125 -10.390625 C 17.4375 -10.085938 16.625 -9.9375 15.6875 -9.9375 C 15.082031 -9.9375 14.609375 -10.03125 14.265625 -10.21875 C 13.929688 -10.414062 13.6875 -10.660156 13.53125 -10.953125 C 13.375 -11.253906 13.253906 -11.578125 13.171875 -11.921875 C 13.097656 -12.265625 13.019531 -12.585938 12.9375 -12.890625 C 12.851562 -13.191406 12.722656 -13.4375 12.546875 -13.625 C 12.378906 -13.8125 12.117188 -13.90625 11.765625 -13.90625 C 11.359375 -13.90625 11.023438 -13.785156 10.765625 -13.546875 C 10.503906 -13.316406 10.300781 -13.003906 10.15625 -12.609375 C 10.019531 -12.222656 9.921875 -11.796875 9.859375 -11.328125 C 9.796875 -10.867188 9.753906 -10.410156 9.734375 -9.953125 C 9.722656 -9.503906 9.71875 -9.101562 9.71875 -8.75 C 9.71875 -7.851562 9.804688 -7.070312 9.984375 -6.40625 C 10.160156 -5.738281 10.367188 -5.140625 10.609375 -4.609375 C 10.859375 -4.085938 11.070312 -3.597656 11.25 -3.140625 C 11.4375 -2.691406 11.53125 -2.234375 11.53125 -1.765625 C 11.53125 -1.285156 11.429688 -0.921875 11.234375 -0.671875 C 11.035156 -0.429688 10.785156 -0.257812 10.484375 -0.15625 C 10.179688 -0.0625 9.878906 -0.0078125 9.578125 0 C 9.285156 0 9.035156 0 8.828125 0 L 3.0625 0 C 2.851562 0 2.597656 0 2.296875 0 C 1.992188 -0.0078125 1.691406 -0.0625 1.390625 -0.15625 C 1.097656 -0.257812 0.851562 -0.429688 0.65625 -0.671875 C 0.457031 -0.921875 0.359375 -1.285156 0.359375 -1.765625 C 0.359375 -2.234375 0.445312 -2.691406 0.625 -3.140625 C 0.800781 -3.597656 1.007812 -4.085938 1.25 -4.609375 C 1.488281 -5.140625 1.695312 -5.738281 1.875 -6.40625 C 2.050781 -7.070312 2.140625 -7.851562 2.140625 -8.75 C 2.140625 -9.789062 2.070312 -10.6875 1.9375 -11.4375 C 1.8125 -12.1875 1.648438 -12.828125 1.453125 -13.359375 C 1.265625 -13.898438 1.070312 -14.375 0.875 -14.78125 C 0.6875 -15.1875 0.523438 -15.566406 0.390625 -15.921875 C 0.265625 -16.273438 0.203125 -16.660156 0.203125 -17.078125 Z M 0.203125 -17.078125 "/></g></g></g><g fill="#f27141" fill-opacity="1"><g transform="translate(6.168016, 56.627948)"><g/></g></g><g fill="#000000" fill-opacity="1"><g transform="translate(13.720175, 56.627948)"><g><path d="M 0.390625 -1.8125 C 0.390625 -2.351562 0.429688 -2.84375 0.515625 -3.28125 C 0.609375 -3.71875 0.722656 -4.15625 0.859375 -4.59375 C 1.003906 -5.03125 1.148438 -5.519531 1.296875 -6.0625 C 1.453125 -6.601562 1.597656 -7.242188 1.734375 -7.984375 C 1.878906 -8.734375 1.992188 -9.617188 2.078125 -10.640625 C 2.160156 -11.671875 2.203125 -12.894531 2.203125 -14.3125 C 2.203125 -15.726562 2.160156 -16.945312 2.078125 -17.96875 C 1.992188 -19 1.878906 -19.882812 1.734375 -20.625 C 1.597656 -21.375 1.453125 -22.019531 1.296875 -22.5625 C 1.148438 -23.101562 1.003906 -23.59375 0.859375 -24.03125 C 0.722656 -24.46875 0.609375 -24.90625 0.515625 -25.34375 C 0.429688 -25.789062 0.390625 -26.28125 0.390625 -26.8125 C 0.390625 -27.300781 0.503906 -27.671875 0.734375 -27.921875 C 0.972656 -28.171875 1.257812 -28.34375 1.59375 -28.4375 C 1.9375 -28.539062 2.269531 -28.597656 2.59375 -28.609375 C 2.925781 -28.617188 3.203125 -28.625 3.421875 -28.625 L 12.34375 -28.625 C 14.632812 -28.625 16.570312 -28.273438 18.15625 -27.578125 C 19.738281 -26.890625 20.941406 -25.898438 21.765625 -24.609375 C 22.585938 -23.316406 23 -21.757812 23 -19.9375 C 23 -18.5 22.78125 -17.265625 22.34375 -16.234375 C 21.914062 -15.210938 21.335938 -14.363281 20.609375 -13.6875 C 19.890625 -13.019531 19.082031 -12.484375 18.1875 -12.078125 C 17.300781 -11.671875 16.394531 -11.363281 15.46875 -11.15625 C 14.539062 -10.957031 13.65625 -10.828125 12.8125 -10.765625 C 11.96875 -10.703125 11.242188 -10.671875 10.640625 -10.671875 C 10.378906 -10.671875 10.195312 -10.59375 10.09375 -10.4375 C 10 -10.289062 9.953125 -10.125 9.953125 -9.9375 C 9.953125 -9.125 10.03125 -8.359375 10.1875 -7.640625 C 10.351562 -6.929688 10.546875 -6.25 10.765625 -5.59375 C 10.984375 -4.945312 11.171875 -4.3125 11.328125 -3.6875 C 11.484375 -3.070312 11.5625 -2.445312 11.5625 -1.8125 C 11.5625 -1.320312 11.445312 -0.945312 11.21875 -0.6875 C 10.988281 -0.4375 10.703125 -0.257812 10.359375 -0.15625 C 10.023438 -0.0625 9.691406 -0.0078125 9.359375 0 C 9.023438 0 8.753906 0 8.546875 0 L 3.421875 0 C 3.203125 0 2.925781 0 2.59375 0 C 2.269531 -0.0078125 1.9375 -0.0625 1.59375 -0.15625 C 1.257812 -0.257812 0.972656 -0.4375 0.734375 -0.6875 C 0.503906 -0.945312 0.390625 -1.320312 0.390625 -1.8125 Z M 11.625 -22.875 C 11.1875 -22.882812 10.800781 -22.816406 10.46875 -22.671875 C 10.144531 -22.523438 9.984375 -22.25 9.984375 -21.84375 L 9.984375 -18.703125 C 9.984375 -18.296875 10.144531 -18.023438 10.46875 -17.890625 C 10.800781 -17.753906 11.1875 -17.679688 11.625 -17.671875 C 12.382812 -17.660156 13 -17.742188 13.46875 -17.921875 C 13.9375 -18.097656 14.296875 -18.320312 14.546875 -18.59375 C 14.796875 -18.875 14.96875 -19.164062 15.0625 -19.46875 C 15.15625 -19.769531 15.203125 -20.035156 15.203125 -20.265625 C 15.203125 -20.492188 15.15625 -20.753906 15.0625 -21.046875 C 14.96875 -21.335938 14.796875 -21.613281 14.546875 -21.875 C 14.296875 -22.144531 13.9375 -22.375 13.46875 -22.5625 C 13 -22.75 12.382812 -22.851562 11.625 -22.875 Z M 11.625 -22.875 "/></g></g></g><g fill="#000000" fill-opacity="1"><g transform="translate(36.508868, 56.627948)"><g><path d="M 0.203125 -1.765625 C 0.203125 -2.296875 0.242188 -2.742188 0.328125 -3.109375 C 0.410156 -3.484375 0.519531 -3.859375 0.65625 -4.234375 C 0.800781 -4.609375 0.945312 -5.046875 1.09375 -5.546875 C 1.25 -6.046875 1.394531 -6.679688 1.53125 -7.453125 C 1.675781 -8.222656 1.789062 -9.191406 1.875 -10.359375 C 1.957031 -11.535156 2 -12.984375 2 -14.703125 C 2 -16.085938 1.957031 -17.28125 1.875 -18.28125 C 1.789062 -19.28125 1.675781 -20.140625 1.53125 -20.859375 C 1.394531 -21.578125 1.25 -22.195312 1.09375 -22.71875 C 0.945312 -23.25 0.800781 -23.726562 0.65625 -24.15625 C 0.519531 -24.582031 0.410156 -25.007812 0.328125 -25.4375 C 0.242188 -25.863281 0.203125 -26.332031 0.203125 -26.84375 C 0.203125 -27.320312 0.316406 -27.679688 0.546875 -27.921875 C 0.773438 -28.171875 1.054688 -28.34375 1.390625 -28.4375 C 1.734375 -28.539062 2.070312 -28.597656 2.40625 -28.609375 C 2.738281 -28.617188 3.007812 -28.625 3.21875 -28.625 L 8.34375 -28.625 C 8.5625 -28.625 8.832031 -28.617188 9.15625 -28.609375 C 9.488281 -28.597656 9.820312 -28.539062 10.15625 -28.4375 C 10.5 -28.34375 10.785156 -28.171875 11.015625 -27.921875 C 11.253906 -27.679688 11.375 -27.320312 11.375 -26.84375 C 11.375 -26.332031 11.328125 -25.863281 11.234375 -25.4375 C 11.148438 -25.007812 11.035156 -24.582031 10.890625 -24.15625 C 10.753906 -23.726562 10.609375 -23.25 10.453125 -22.71875 C 10.304688 -22.195312 10.160156 -21.578125 10.015625 -20.859375 C 9.878906 -20.140625 9.769531 -19.28125 9.6875 -18.28125 C 9.601562 -17.28125 9.5625 -16.085938 9.5625 -14.703125 C 9.5625 -12.984375 9.601562 -11.535156 9.6875 -10.359375 C 9.769531 -9.191406 9.878906 -8.222656 10.015625 -7.453125 C 10.160156 -6.679688 10.304688 -6.046875 10.453125 -5.546875 C 10.609375 -5.046875 10.753906 -4.609375 10.890625 -4.234375 C 11.035156 -3.859375 11.148438 -3.484375 11.234375 -3.109375 C 11.328125 -2.742188 11.375 -2.296875 11.375 -1.765625 C 11.375 -1.285156 11.253906 -0.921875 11.015625 -0.671875 C 10.785156 -0.429688 10.5 -0.257812 10.15625 -0.15625 C 9.820312 -0.0625 9.488281 -0.0078125 9.15625 0 C 8.832031 0 8.5625 0 8.34375 0 L 3.21875 0 C 3.007812 0 2.738281 0 2.40625 0 C 2.070312 -0.0078125 1.734375 -0.0625 1.390625 -0.15625 C 1.054688 -0.257812 0.773438 -0.429688 0.546875 -0.671875 C 0.316406 -0.921875 0.203125 -1.285156 0.203125 -1.765625 Z M 0.203125 -1.765625 "/></g></g></g><g fill="#000000" fill-opacity="1"><g transform="translate(48.072093, 56.627948)"><g><path d="M 0.5 -9.9375 C 0.5 -11.3125 0.65625 -12.519531 0.96875 -13.5625 C 1.28125 -14.613281 1.695312 -15.515625 2.21875 -16.265625 C 2.75 -17.023438 3.335938 -17.65625 3.984375 -18.15625 C 4.640625 -18.65625 5.3125 -19.050781 6 -19.34375 C 6.6875 -19.644531 7.347656 -19.859375 7.984375 -19.984375 C 8.617188 -20.109375 9.175781 -20.171875 9.65625 -20.171875 C 10.519531 -20.179688 11.207031 -20.160156 11.71875 -20.109375 C 12.226562 -20.054688 12.648438 -20.003906 12.984375 -19.953125 C 13.328125 -19.898438 13.660156 -19.875 13.984375 -19.875 C 14.679688 -19.875 15.238281 -19.898438 15.65625 -19.953125 C 16.082031 -20.003906 16.453125 -20.050781 16.765625 -20.09375 C 17.078125 -20.144531 17.382812 -20.171875 17.6875 -20.171875 C 17.894531 -20.171875 18.140625 -20.144531 18.421875 -20.09375 C 18.710938 -20.039062 19 -19.929688 19.28125 -19.765625 C 19.5625 -19.609375 19.789062 -19.382812 19.96875 -19.09375 C 20.15625 -18.800781 20.25 -18.421875 20.25 -17.953125 C 20.25 -17.484375 20.175781 -16.992188 20.03125 -16.484375 C 19.894531 -15.984375 19.738281 -15.425781 19.5625 -14.8125 C 19.394531 -14.207031 19.242188 -13.507812 19.109375 -12.71875 C 18.972656 -11.925781 18.90625 -11 18.90625 -9.9375 C 18.90625 -9.019531 18.953125 -8.238281 19.046875 -7.59375 C 19.148438 -6.957031 19.273438 -6.40625 19.421875 -5.9375 C 19.578125 -5.46875 19.726562 -5.054688 19.875 -4.703125 C 20.03125 -4.347656 20.15625 -4.007812 20.25 -3.6875 C 20.351562 -3.375 20.40625 -3.039062 20.40625 -2.6875 C 20.40625 -2.101562 20.179688 -1.582031 19.734375 -1.125 C 19.285156 -0.675781 18.679688 -0.328125 17.921875 -0.078125 C 17.171875 0.171875 16.328125 0.296875 15.390625 0.296875 C 14.972656 0.296875 14.648438 0.234375 14.421875 0.109375 C 14.203125 -0.00390625 14.019531 -0.132812 13.875 -0.28125 C 13.738281 -0.4375 13.59375 -0.570312 13.4375 -0.6875 C 13.28125 -0.8125 13.066406 -0.875 12.796875 -0.875 C 12.503906 -0.875 12.242188 -0.8125 12.015625 -0.6875 C 11.796875 -0.570312 11.539062 -0.4375 11.25 -0.28125 C 10.96875 -0.132812 10.613281 -0.00390625 10.1875 0.109375 C 9.769531 0.234375 9.21875 0.296875 8.53125 0.296875 C 7.425781 0.296875 6.382812 0.0507812 5.40625 -0.4375 C 4.4375 -0.925781 3.582031 -1.617188 2.84375 -2.515625 C 2.113281 -3.421875 1.539062 -4.503906 1.125 -5.765625 C 0.707031 -7.023438 0.5 -8.414062 0.5 -9.9375 Z M 9.8125 -14.921875 C 9.28125 -14.921875 8.851562 -14.460938 8.53125 -13.546875 C 8.207031 -12.640625 8.046875 -11.4375 8.046875 -9.9375 C 8.046875 -8.457031 8.207031 -7.257812 8.53125 -6.34375 C 8.851562 -5.425781 9.28125 -4.96875 9.8125 -4.96875 C 10.34375 -4.96875 10.769531 -5.425781 11.09375 -6.34375 C 11.425781 -7.257812 11.59375 -8.457031 11.59375 -9.9375 C 11.59375 -11.4375 11.425781 -12.640625 11.09375 -13.546875 C 10.769531 -14.460938 10.34375 -14.921875 9.8125 -14.921875 Z M 9.8125 -14.921875 "/></g></g></g><g fill="#000000" fill-opacity="1"><g transform="translate(68.655428, 56.627948)"><g><path d="M 6.8125 0.296875 C 5.582031 0.296875 4.46875 0.0351562 3.46875 -0.484375 C 2.46875 -1.003906 1.671875 -1.765625 1.078125 -2.765625 C 0.492188 -3.765625 0.203125 -4.976562 0.203125 -6.40625 C 0.203125 -7.34375 0.320312 -8.238281 0.5625 -9.09375 C 0.800781 -9.957031 1.097656 -10.773438 1.453125 -11.546875 C 1.804688 -12.316406 2.160156 -13.03125 2.515625 -13.6875 C 2.867188 -14.351562 3.160156 -14.960938 3.390625 -15.515625 C 3.628906 -16.066406 3.75 -16.5625 3.75 -17 C 3.75 -17.34375 3.703125 -17.570312 3.609375 -17.6875 C 3.523438 -17.8125 3.390625 -17.875 3.203125 -17.875 C 3.023438 -17.875 2.8125 -17.835938 2.5625 -17.765625 C 2.3125 -17.703125 2.039062 -17.671875 1.75 -17.671875 C 1.195312 -17.671875 0.800781 -17.785156 0.5625 -18.015625 C 0.332031 -18.242188 0.21875 -18.566406 0.21875 -18.984375 C 0.21875 -19.484375 0.535156 -20.082031 1.171875 -20.78125 C 1.804688 -21.488281 2.628906 -22.304688 3.640625 -23.234375 C 4.234375 -23.785156 4.804688 -24.332031 5.359375 -24.875 C 5.910156 -25.425781 6.398438 -25.878906 6.828125 -26.234375 C 7.253906 -26.585938 7.582031 -26.765625 7.8125 -26.765625 C 8.070312 -26.765625 8.265625 -26.675781 8.390625 -26.5 C 8.523438 -26.320312 8.613281 -26.097656 8.65625 -25.828125 C 8.695312 -25.566406 8.71875 -25.316406 8.71875 -25.078125 L 8.71875 -19.875 L 9.546875 -19.875 C 9.859375 -19.875 10.113281 -19.773438 10.3125 -19.578125 C 10.507812 -19.378906 10.609375 -19.117188 10.609375 -18.796875 L 10.609375 -18.734375 C 10.609375 -18.421875 10.507812 -18.164062 10.3125 -17.96875 C 10.113281 -17.769531 9.859375 -17.671875 9.546875 -17.671875 L 8.71875 -17.671875 L 8.71875 -9.9375 C 8.71875 -8.71875 8.8125 -7.722656 9 -6.953125 C 9.1875 -6.179688 9.414062 -5.566406 9.6875 -5.109375 C 9.96875 -4.660156 10.25 -4.296875 10.53125 -4.015625 C 10.8125 -3.734375 11.039062 -3.484375 11.21875 -3.265625 C 11.40625 -3.046875 11.5 -2.78125 11.5 -2.46875 C 11.5 -2.03125 11.359375 -1.640625 11.078125 -1.296875 C 10.796875 -0.953125 10.421875 -0.660156 9.953125 -0.421875 C 9.492188 -0.179688 8.988281 -0.00390625 8.4375 0.109375 C 7.882812 0.234375 7.34375 0.296875 6.8125 0.296875 Z M 6.8125 0.296875 "/></g></g></g><g fill="#000000" fill-opacity="1"><g transform="translate(80.357729, 56.627948)"><g><path d="M 0.5 -9.9375 C 0.5 -11.195312 0.710938 -12.4375 1.140625 -13.65625 C 1.566406 -14.875 2.222656 -15.972656 3.109375 -16.953125 C 3.992188 -17.929688 5.109375 -18.710938 6.453125 -19.296875 C 7.796875 -19.878906 9.390625 -20.171875 11.234375 -20.171875 C 12.253906 -20.171875 13.234375 -20.039062 14.171875 -19.78125 C 15.109375 -19.519531 15.941406 -19.128906 16.671875 -18.609375 C 17.410156 -18.085938 17.992188 -17.4375 18.421875 -16.65625 C 18.859375 -15.875 19.078125 -14.957031 19.078125 -13.90625 C 19.078125 -12.757812 18.898438 -11.757812 18.546875 -10.90625 C 18.203125 -10.0625 17.734375 -9.347656 17.140625 -8.765625 C 16.546875 -8.179688 15.890625 -7.695312 15.171875 -7.3125 C 14.460938 -6.9375 13.742188 -6.640625 13.015625 -6.421875 C 12.328125 -6.210938 11.722656 -6.113281 11.203125 -6.125 C 10.679688 -6.132812 10.265625 -6.140625 9.953125 -6.140625 C 9.785156 -6.140625 9.65625 -6.125 9.5625 -6.09375 C 9.476562 -6.0625 9.4375 -5.984375 9.4375 -5.859375 C 9.4375 -5.648438 9.550781 -5.476562 9.78125 -5.34375 C 10.019531 -5.207031 10.300781 -5.109375 10.625 -5.046875 C 10.945312 -4.992188 11.238281 -4.96875 11.5 -4.96875 C 12.21875 -4.96875 12.820312 -5.054688 13.3125 -5.234375 C 13.800781 -5.410156 14.234375 -5.613281 14.609375 -5.84375 C 14.984375 -6.070312 15.34375 -6.273438 15.6875 -6.453125 C 16.03125 -6.628906 16.40625 -6.71875 16.8125 -6.71875 C 17.257812 -6.71875 17.644531 -6.609375 17.96875 -6.390625 C 18.300781 -6.171875 18.566406 -5.890625 18.765625 -5.546875 C 18.972656 -5.210938 19.125 -4.863281 19.21875 -4.5 C 19.320312 -4.144531 19.375 -3.820312 19.375 -3.53125 C 19.375 -2.9375 19.085938 -2.34375 18.515625 -1.75 C 17.941406 -1.164062 17.050781 -0.675781 15.84375 -0.28125 C 14.644531 0.101562 13.109375 0.296875 11.234375 0.296875 C 9.484375 0.296875 7.941406 0.0078125 6.609375 -0.5625 C 5.273438 -1.144531 4.15625 -1.925781 3.25 -2.90625 C 2.34375 -3.882812 1.65625 -4.984375 1.1875 -6.203125 C 0.726562 -7.421875 0.5 -8.664062 0.5 -9.9375 Z M 8.171875 -12.046875 C 7.835938 -11.191406 7.71875 -10.503906 7.8125 -9.984375 C 7.90625 -9.460938 8.195312 -9.203125 8.6875 -9.203125 C 9.1875 -9.203125 9.691406 -9.460938 10.203125 -9.984375 C 10.710938 -10.503906 11.132812 -11.191406 11.46875 -12.046875 C 11.8125 -12.910156 11.929688 -13.601562 11.828125 -14.125 C 11.734375 -14.644531 11.4375 -14.90625 10.9375 -14.90625 C 10.445312 -14.90625 9.945312 -14.644531 9.4375 -14.125 C 8.9375 -13.601562 8.515625 -12.910156 8.171875 -12.046875 Z M 8.171875 -12.046875 "/></g></g></g></g></g></svg>